mastitorrents.com
 
http://mastitorrents.com/forums/index.php

Delicious Bengali Booty Shaheen-=MTR=-@Mastitorrents
 
http://thepiratebay.org/user/HDvideos/0/7

Complete name : Delicious Bengali Booty Shaheen.avi
Format : AVI
Format/Info : Audio Video Interleave
File size : 319 MiB
Duration : 19mn 20s
Overall bit rate : 2 302 Kbps
Writing library : Boilsoft AVI tool build 1/release

Video

ID : 0
Format : MPEG-4 Visual
Format profile : Simple@L1
Format settings, BVOP : No
Format settings, QPel : No
Format settings, GMC : No warppoints
Format settings, Matrix : Default (H.263)
Codec ID : DX50
Codec ID/Hint : DivX 5
Duration : 19mn 20s
Bit rate : 2 165 Kbps
Width : 720 pixels
Height : 480 pixels
Display aspect ratio : 3:2
Frame rate : 23.976 fps
Standard : NTSC
Color space : YUV
Chroma subsampling : 4:2:0
Bit depth : 8 bits
Scan type : Interlaced
Scan order : Top Field First
Compression mode : Lossy
Bits/(Pixel*Frame) : 0.261
Stream size : 300 MiB (94%)
Writing library : Lavc52.2.0

Audio

ID : 1
Format : MPEG Audio
Format version : Version 1
Format profile : Layer 3
Mode : Joint stereo
Codec ID : 55
Codec ID/Hint : MP3
Duration : 19mn 20s
Bit rate mode : Constant
Bit rate : 128 Kbps
Channel(s) : 2 channels
Sampling rate : 44.1 KHz
Compression mode : Lossy
Stream size : 17.7 MiB (6%)
Alignment : Split accross interleaves
Interleave, duration : 42 ms (1.00 video frame)
Interleave, preload duration : 500 ms

Recommended Player:VLC Player

facebook. com/MastiTorrents

facebook. com/MastiTorrentsReleasers